<svg xmlns="http://www.w3.org/2000/svg" version="1.1" xmlns:xlink="http://www.w3.org/1999/xlink" xmlns:svgjs="http://svgjs.dev/svgjs" width="1500" height="1500" viewBox="0 0 1500 1500"><rect width="1500" height="1500" fill="#77d4fc"></rect><g transform="matrix(0.6666666666666666,0,0,0.6666666666666666,247.80767747411733,605.836821616973)"><svg viewBox="0 0 257 72" data-background-color="#77d4fc" preserveAspectRatio="xMidYMid meet" height="420" width="1500" xmlns="http://www.w3.org/2000/svg" xmlns:xlink="http://www.w3.org/1999/xlink"><g id="tight-bounds" transform="matrix(1,0,0,1,0.5634268891518559,1.0705315842069467)"><svg viewBox="0 0 256.1989035866477 69.207421875" height="69.207421875" width="256.1989035866477"><g><svg viewBox="0 0 256.1989035866477 69.207421875" height="69.207421875" width="256.1989035866477"><g><svg viewBox="0 0 256.1989035866477 69.207421875" height="69.207421875" width="256.1989035866477"><g id="textblocktransform"><svg viewBox="0 0 256.1989035866477 69.207421875" height="69.207421875" width="256.1989035866477" id="textblock"><g><svg viewBox="0 0 256.1989035866477 69.207421875" height="69.207421875" width="256.1989035866477"><g><svg><g></g><g></g></svg></g><g><svg><g></g><g><svg></svg></g></svg></g><g id="text-0"><svg viewBox="0 0 256.1989035866477 69.207421875" height="69.207421875" width="256.1989035866477"><g><svg xmlns="http://www.w3.org/2000/svg" viewBox="2 10 60 44" x="0" y="0" height="69.207421875" width="94.37375710227272" class="icon-dxe-0" data-fill-palette-color="accent" id="dxe-0"><g fill="#000000" data-fill-palette-color="accent"><path d="M61 48H60V12A2 2 0 0 0 58 10H6A2 2 0 0 0 4 12V48H3A1 1 0 0 0 2 49V50A4 4 0 0 0 6 54H58A4 4 0 0 0 62 50V49A1 1 0 0 0 61 48M6 12H58V48H6ZM58 52H6A2 2 0 0 1 4 50H60A2 2 0 0 1 58 52" fill="#000000" data-fill-palette-color="accent"></path><path d="M55 14H9A1 1 0 0 0 8 15V45A1 1 0 0 0 9 46H55A1 1 0 0 0 56 45V15A1 1 0 0 0 55 14M54 44H10V16H54Z" fill="#000000" data-fill-palette-color="accent"></path><path d="M19 36H22V41A1 1 0 0 0 23 42H27A1 1 0 0 0 28 41V36H36V41A1 1 0 0 0 37 42H41A1 1 0 0 0 42 41V36H45A1 1 0 0 0 46 35V19A1 1 0 0 0 45 18H19A1 1 0 0 0 18 19V35A1 1 0 0 0 19 36M26 40H24V36H26ZM40 40H38V36H40ZM20 20H44V34H20Z" fill="#000000" data-fill-palette-color="accent"></path><path d="M23 24H33A1 1 0 0 0 33 22H23A1 1 0 0 0 23 24" fill="#000000" data-fill-palette-color="accent"></path><path d="M37 24H41A1 1 0 0 0 41 22H37A1 1 0 0 0 37 24" fill="#000000" data-fill-palette-color="accent"></path><path d="M23 28H27A1 1 0 0 0 27 26H23A1 1 0 0 0 23 28" fill="#000000" data-fill-palette-color="accent"></path><path d="M30 27A1 1 0 0 0 31 28H35A1 1 0 0 0 35 26H31A1 1 0 0 0 30 27" fill="#000000" data-fill-palette-color="accent"></path><path d="M41 26H39A1 1 0 0 0 39 28H41A1 1 0 0 0 41 26" fill="#000000" data-fill-palette-color="accent"></path><path d="M29 32A1 1 0 0 0 29 30H23A1 1 0 0 0 23 32Z" fill="#000000" data-fill-palette-color="accent"></path><path d="M41 30H33A1 1 0 0 0 33 32H41A1 1 0 0 0 41 30" fill="#000000" data-fill-palette-color="accent"></path></g></svg></g><g transform="matrix(1,0,0,1,110.71321022727273,0)"><svg width="145.48569335937498" viewBox="0.98 -34.86 89.89999999999999 42.769999999999996" height="69.207421875" data-palette-color="#000000"><path d="M5.96-9.67L4.44 0 0.98 0 6.49-34.86 13.48-34.86 19.04 0 15.58 0 14.06-9.67 5.96-9.67ZM9.06-31.74L7.37-20.39 6.27-12.79 13.75-12.79 12.7-20.41 10.99-31.74 9.06-31.74ZM25.51-19.19L25.51 0 22.36 0 22.36-23.75 25.51-23.75 25.51-21.53 26.19-21.53Q26.83-22.75 27.88-23.41 28.93-24.07 30.49-24.07L30.49-24.07Q32.83-24.07 33.97-22.84 35.1-21.61 35.1-18.58L35.1-18.58Q35.1-17.92 35.06-17.02 35.01-16.11 34.91-15.41L34.91-15.41 31.88-15.41Q31.93-15.65 31.94-16.26 31.96-16.87 31.97-17.48 31.98-18.09 31.98-18.31L31.98-18.31Q31.98-20.12 31.37-20.76 30.76-21.41 29.42-21.41L29.42-21.41Q26.56-21.41 25.51-19.19L25.51-19.19ZM41.99-2.25L41.99 7.91 38.84 7.91 38.84-23.75 41.99-23.75 41.99-21.53 42.67-21.53Q43.5-22.83 44.66-23.45 45.82-24.07 47.85-24.07L47.85-24.07Q50.63-24.07 51.96-22.86 53.29-21.66 53.36-18.82L53.36-18.82Q53.44-17.58 53.46-15.81 53.49-14.04 53.49-12.07 53.49-10.11 53.46-8.25 53.44-6.4 53.36-4.96L53.36-4.96Q53.29-2.15 51.9-0.93 50.51 0.29 47.72 0.29L47.72 0.29Q45.89 0.29 44.72-0.31 43.55-0.9 42.67-2.25L42.67-2.25 41.99-2.25ZM46.85-2.37L46.85-2.37Q50.14-2.37 50.24-4.69L50.24-4.69Q50.43-8.47 50.4-12.16 50.36-15.84 50.24-19.09L50.24-19.09Q50.19-20.31 49.46-20.86 48.73-21.41 46.99-21.41L46.99-21.41Q43.26-21.41 41.99-19.19L41.99-19.19 41.99-4.59Q42.65-3.39 43.78-2.88 44.92-2.37 46.85-2.37ZM63.2 0.27L63.2 0.27Q60.22 0.27 58.79-0.9 57.37-2.08 57.12-4.57L57.12-4.57Q57.1-5.05 57.06-5.54 57.02-6.03 57.07-6.49L57.07-6.49Q57.24-8.67 58.44-10.14 59.64-11.62 62.98-12.84L62.98-12.84Q64.35-13.33 65.86-13.72 67.38-14.11 68.86-14.48L68.86-14.48 68.86-18.99Q68.86-20.19 67.96-20.76 67.06-21.34 64.81-21.34L64.81-21.34Q62.86-21.34 61.85-20.85 60.83-20.36 60.73-19.07L60.73-19.07Q60.69-18.46 60.69-17.32 60.69-16.19 60.73-15.41L60.73-15.41 57.68-15.41Q57.63-16.02 57.59-16.99 57.54-17.97 57.61-18.73L57.61-18.73Q57.73-21.56 59.45-22.81 61.17-24.07 64.93-24.07L64.93-24.07Q68.86-24.07 70.39-22.71 71.92-21.34 71.94-18.21L71.94-18.21 71.94 0 68.86 0 68.86-2.25 68.18-2.25Q67.57-1.03 66.44-0.38 65.3 0.27 63.2 0.27ZM63.98-2.37L63.98-2.37Q67.5-2.37 68.84-4.47L68.84-4.47 68.84-11.87Q67.67-11.62 66.44-11.29 65.2-10.96 63.54-10.4L63.54-10.4Q61.56-9.67 60.91-8.72 60.25-7.76 60.15-6.49L60.15-6.49Q60.17-6.13 60.19-5.7 60.2-5.27 60.25-4.81L60.25-4.81Q60.42-3.64 61.42-3 62.42-2.37 63.98-2.37ZM79.58-19.19L79.58 0 76.43 0 76.43-23.75 79.58-23.75 79.58-21.53 80.34-21.53Q81.09-22.75 82.33-23.41 83.56-24.07 85.44-24.07L85.44-24.07Q88.2-24.07 89.54-22.86 90.88-21.66 90.88-18.82L90.88-18.82 90.88 0 87.76 0 87.76-19.09Q87.76-20.31 86.99-20.86 86.22-21.41 84.51-21.41L84.51-21.41Q82.8-21.41 81.51-20.83 80.21-20.24 79.58-19.19L79.58-19.19Z" opacity="1" transform="matrix(1,0,0,1,0,0)" fill="#000000" class="wordmark-text-0" data-fill-palette-color="primary"></path></svg></g></svg></g></svg></g></svg></g></svg></g></svg></g><defs></defs></svg><rect width="256.1989035866477" height="69.207421875" fill="none" stroke="none" visibility="hidden"></rect></g></svg></g></svg>